<?xml version="1.0" encoding="UTF-8"?>
<svg version="1.1" xmlns="http://www.w3.org/2000/svg" width="2560" height="1826">
<path d="M0 0 C0.99 0.33 1.98 0.66 3 1 C3 1.66 3 2.32 3 3 C3.66 3 4.32 3 5 3 C10 8.47619048 10 8.47619048 10 11 C10.66 11 11.32 11 12 11 C13.56432787 12.69274284 15.05328572 14.45569852 16.5 16.25 C17.69109375 17.71179687 17.69109375 17.71179687 18.90625 19.203125 C20.58748034 21.44894762 21.88135899 23.4465803 23 26 C23.66 26 24.32 26 25 26 C25 26.66 25 27.32 25 28 C25.99 28.33 26.98 28.66 28 29 C29.60812665 30.73226275 31.14197316 32.5345009 32.625 34.375 C33.42164063 35.35210937 34.21828125 36.32921875 35.0390625 37.3359375 C37 40 37 40 38 43 C39.33055563 43.67219338 40.66421574 44.33825789 42 45 C43.52734375 46.76953125 43.52734375 46.76953125 44.9375 48.8125 C47.38155713 52.21584955 49.99467819 55.06797872 53 58 C54.28417058 59.3835729 55.55431602 60.78025406 56.8125 62.1875 C57.41707031 62.86167969 58.02164062 63.53585938 58.64453125 64.23046875 C60 66 60 66 60 68 C60.99 68.33 61.98 68.66 63 69 C64.60812665 70.73226275 66.14197316 72.5345009 67.625 74.375 C68.42164063 75.35210937 69.21828125 76.32921875 70.0390625 77.3359375 C72 80 72 80 73 83 C73.61617187 83.30808594 74.23234375 83.61617188 74.8671875 83.93359375 C77.47376066 85.23688033 78.4754491 86.68317396 80.125 89.0625 C82.11074647 92.04627522 82.11074647 92.04627522 85 94 C85 94.66 85 95.32 85 96 C85.66 96 86.32 96 87 96 C88.37248681 97.55315386 89.67478701 99.16885684 90.9375 100.8125 C93.68199668 104.40146267 93.68199668 104.40146267 96.75390625 107.69921875 C98 109 98 109 98 111 C98.66 111 99.32 111 100 111 C105 116.47619048 105 116.47619048 105 119 C105.66 119 106.32 119 107 119 C108.56432787 120.69274284 110.05328572 122.45569852 111.5 124.25 C112.2940625 125.22453125 113.088125 126.1990625 113.90625 127.203125 C115.58748034 129.44894762 116.88135899 131.4465803 118 134 C118.66 134 119.32 134 120 134 C120 134.66 120 135.32 120 136 C120.66 136 121.32 136 122 136 C123.56432787 137.69274284 125.05328572 139.45569852 126.5 141.25 C127.2940625 142.22453125 128.088125 143.1990625 128.90625 144.203125 C130.58748034 146.44894762 131.88135899 148.4465803 133 151 C133.66 151 134.32 151 135 151 C136.51740976 152.69903023 137.965128 154.46072723 139.375 156.25 C141.59229313 159.05313312 143.7305752 161.73701197 146.2890625 164.234375 C148 166 148 166 148 168 C148.66 168 149.32 168 150 168 C155 173.47619048 155 173.47619048 155 176 C155.66 176 156.32 176 157 176 C158.56432787 177.69274284 160.05328572 179.45569852 161.5 181.25 C162.2940625 182.22453125 163.088125 183.1990625 163.90625 184.203125 C165.58748034 186.44894762 166.88135899 188.4465803 168 191 C168.66 191 169.32 191 170 191 C170 191.66 170 192.32 170 193 C170.66 193 171.32 193 172 193 C173.56432787 194.69274284 175.05328572 196.45569852 176.5 198.25 C177.2940625 199.22453125 178.088125 200.1990625 178.90625 201.203125 C181 204 181 204 182.09375 206.296875 C182.9425407 208.36359766 182.9425407 208.36359766 186 209 C190 213.45714286 190 213.45714286 190 216 C190.66 216 191.32 216 192 216 C193.56432787 217.69274284 195.05328572 219.45569852 196.5 221.25 C197.2940625 222.22453125 198.088125 223.1990625 198.90625 224.203125 C200.58748034 226.44894762 201.88135899 228.4465803 203 231 C203.66 231 204.32 231 205 231 C205 231.66 205 232.32 205 233 C205.99 233.33 206.98 233.66 208 234 C209.60812665 235.73226275 211.14197316 237.5345009 212.625 239.375 C213.42164063 240.35210937 214.21828125 241.32921875 215.0390625 242.3359375 C217 245 217 245 218 248 C219.33055563 248.67219338 220.66421574 249.33825789 222 250 C223.52734375 251.76953125 223.52734375 251.76953125 224.9375 253.8125 C226.66549233 256.22134717 228.26934665 258.26934665 230.375 260.375 C233.5349285 263.5349285 236.20249829 266.97096554 238.9375 270.5 C241.14717936 273.17839923 243.52666424 275.56408233 246 278 C247.78424076 279.88322054 249.55515671 281.77915536 251.3125 283.6875 C252.19550781 284.64011719 253.07851562 285.59273438 253.98828125 286.57421875 C256 289 256 289 256 291 C256.66 291 257.32 291 258 291 C263 296.47619048 263 296.47619048 263 299 C263.66 299 264.32 299 265 299 C266.56432787 300.69274284 268.05328572 302.45569852 269.5 304.25 C270.2940625 305.22453125 271.088125 306.1990625 271.90625 307.203125 C273.58748034 309.44894762 274.88135899 311.4465803 276 314 C276.66 314 277.32 314 278 314 C278 314.66 278 315.32 278 316 C278.66 316 279.32 316 280 316 C281.56432787 317.69274284 283.05328572 319.45569852 284.5 321.25 C285.2940625 322.22453125 286.088125 323.1990625 286.90625 324.203125 C289 327 289 327 290.09375 329.296875 C290.9425407 331.36359766 290.9425407 331.36359766 294 332 C298 336.45714286 298 336.45714286 298 339 C298.66 339 299.32 339 300 339 C301.56432787 340.69274284 303.05328572 342.45569852 304.5 344.25 C305.2940625 345.22453125 306.088125 346.1990625 306.90625 347.203125 C308.58748034 349.44894762 309.88135899 351.4465803 311 354 C311.66 354 312.32 354 313 354 C313 354.66 313 355.32 313 356 C313.99 356.33 314.98 356.66 316 357 C317.71875 358.9609375 317.71875 358.9609375 319.5 361.375 C321.93870086 364.66845955 321.93870086 364.66845955 324.71875 367.6640625 C326 369 326 369 326 371 C326.59941406 371.25136719 327.19882813 371.50273437 327.81640625 371.76171875 C330.29362153 373.16650809 331.32960288 374.48305348 332.9375 376.8125 C335.38155713 380.21584955 337.99467819 383.06797872 341 386 C342.28417058 387.3835729 343.55431602 388.78025406 344.8125 390.1875 C345.41707031 390.86167969 346.02164062 391.53585937 346.64453125 392.23046875 C348 394 348 394 348 396 C348.99 396.33 349.98 396.66 351 397 C352.71875 398.9609375 352.71875 398.9609375 354.5 401.375 C356.93870086 404.66845955 356.93870086 404.66845955 359.71875 407.6640625 C361 409 361 409 361 411 C361.59554688 411.24621094 362.19109375 411.49242187 362.8046875 411.74609375 C365.3532367 413.20175975 366.46165672 414.66327972 368.125 417.0625 C370.11074647 420.04627522 370.11074647 420.04627522 373 422 C373 422.66 373 423.32 373 424 C373.66 424 374.32 424 375 424 C376.37248681 425.55315386 377.67478701 427.16885684 378.9375 428.8125 C381.68199668 432.40146267 381.68199668 432.40146267 384.75390625 435.69921875 C386 437 386 437 386 439 C386.66 439 387.32 439 388 439 C393 444.47619048 393 444.47619048 393 447 C393.66 447 394.32 447 395 447 C396.56432787 448.69274284 398.05328572 450.45569852 399.5 452.25 C400.2940625 453.22453125 401.088125 454.1990625 401.90625 455.203125 C403.58748034 457.44894762 404.88135899 459.4465803 406 462 C406.66 462 407.32 462 408 462 C408 462.66 408 463.32 408 464 C408.66 464 409.32 464 410 464 C411.56432787 465.69274284 413.05328572 467.45569852 414.5 469.25 C415.2940625 470.22453125 416.088125 471.1990625 416.90625 472.203125 C418.58748034 474.44894762 419.88135899 476.4465803 421 479 C421.66 479 422.32 479 423 479 C424.51740976 480.69903023 425.965128 482.46072723 427.375 484.25 C429.59229313 487.05313312 431.7305752 489.73701197 434.2890625 492.234375 C436 494 436 494 436 496 C436.66 496 437.32 496 438 496 C443 501.47619048 443 501.47619048 443 504 C443.66 504 444.32 504 445 504 C446.56432787 505.69274284 448.05328572 507.45569852 449.5 509.25 C450.2940625 510.22453125 451.088125 511.1990625 451.90625 512.203125 C453.58748034 514.44894762 454.88135899 516.4465803 456 519 C456.66 519 457.32 519 458 519 C458 519.66 458 520.32 458 521 C458.66 521 459.32 521 460 521 C461.56432787 522.69274284 463.05328572 524.45569852 464.5 526.25 C465.2940625 527.22453125 466.088125 528.1990625 466.90625 529.203125 C469 532 469 532 470.09375 534.296875 C470.9425407 536.36359766 470.9425407 536.36359766 474 537 C478 541.45714286 478 541.45714286 478 544 C478.66 544 479.32 544 480 544 C481.45402342 545.6376272 482.83848678 547.33734196 484.1875 549.0625 C486.83367134 552.37548964 489.43739044 555.56649342 492.5 558.5 C496.2322862 562.10329013 499.40103217 566.09881203 502.64453125 570.140625 C505.73781915 573.89566106 509.02384808 577.45282914 512.34765625 581.00390625 C514 583 514 583 514 585 C514.66 585 515.32 585 516 585 C516 585.66 516 586.32 516 587 C516.66 587 517.32 587 518 587 C519.56432787 588.69274284 521.05328572 590.45569852 522.5 592.25 C523.2940625 593.22453125 524.088125 594.1990625 524.90625 595.203125 C526.58748034 597.44894762 527.88135899 599.4465803 529 602 C529.66 602 530.32 602 531 602 C532.51740976 603.69903023 533.965128 605.46072723 535.375 607.25 C537.59229313 610.05313312 539.7305752 612.73701197 542.2890625 615.234375 C544 617 544 617 544 619 C544.66 619 545.32 619 546 619 C551 624.47619048 551 624.47619048 551 627 C551.66 627 552.32 627 553 627 C554.56432787 628.69274284 556.05328572 630.45569852 557.5 632.25 C558.2940625 633.22453125 559.088125 634.1990625 559.90625 635.203125 C561.58748034 637.44894762 562.88135899 639.4465803 564 642 C564.66 642 565.32 642 566 642 C566 642.66 566 643.32 566 644 C566.66 644 567.32 644 568 644 C569.56432787 645.69274284 571.05328572 647.45569852 572.5 649.25 C573.2940625 650.22453125 574.088125 651.1990625 574.90625 652.203125 C577 655 577 655 578.09375 657.296875 C578.9425407 659.36359766 578.9425407 659.36359766 582 660 C586 664.45714286 586 664.45714286 586 667 C586.66 667 587.32 667 588 667 C589.56432787 668.69274284 591.05328572 670.45569852 592.5 672.25 C593.2940625 673.22453125 594.088125 674.1990625 594.90625 675.203125 C596.58748034 677.44894762 597.88135899 679.4465803 599 682 C599.66 682 600.32 682 601 682 C601 682.66 601 683.32 601 684 C601.99 684.33 602.98 684.66 604 685 C605.71875 686.9609375 605.71875 686.9609375 607.5 689.375 C609.93870086 692.66845955 609.93870086 692.66845955 612.71875 695.6640625 C614 697 614 697 614 699 C614.89912109 699.37705078 614.89912109 699.37705078 615.81640625 699.76171875 C618.29362153 701.16650809 619.32960288 702.48305348 620.9375 704.8125 C623.38155713 708.21584955 625.99467819 711.06797872 629 714 C630.28417058 715.3835729 631.55431602 716.78025406 632.8125 718.1875 C633.41707031 718.86167969 634.02164063 719.53585937 634.64453125 720.23046875 C636 722 636 722 636 724 C636.99 724.33 637.98 724.66 639 725 C640.71875 726.9609375 640.71875 726.9609375 642.5 729.375 C644.93870086 732.66845955 644.93870086 732.66845955 647.71875 735.6640625 C649 737 649 737 649 739 C649.59554687 739.24621094 650.19109375 739.49242187 650.8046875 739.74609375 C653.3532367 741.20175975 654.46165672 742.66327972 656.125 745.0625 C658.11074647 748.04627522 658.11074647 748.04627522 661 750 C661 750.66 661 751.32 661 752 C661.66 752 662.32 752 663 752 C664.56432787 753.69274284 666.05328572 755.45569852 667.5 757.25 C668.2940625 758.22453125 669.088125 759.1990625 669.90625 760.203125 C671.58748034 762.44894762 672.88135899 764.4465803 674 767 C674.66 767 675.32 767 676 767 C681 772.47619048 681 772.47619048 681 775 C681.66 775 682.32 775 683 775 C684.56432787 776.69274284 686.05328572 778.45569852 687.5 780.25 C688.2940625 781.22453125 689.088125 782.1990625 689.90625 783.203125 C691.58748034 785.44894762 692.88135899 787.4465803 694 790 C694.66 790 695.32 790 696 790 C696 790.66 696 791.32 696 792 C696.66 792 697.32 792 698 792 C699.56432787 793.69274284 701.05328572 795.45569852 702.5 797.25 C703.2940625 798.22453125 704.088125 799.1990625 704.90625 800.203125 C707 803 707 803 708.03125 805.234375 C709.29571531 807.538965 710.6678662 807.85994203 713 809 C714.7890625 810.99609375 714.7890625 810.99609375 716.625 813.4375 C720.52256043 818.48962079 724.72085068 823.11367301 729.09375 827.75 C731 830 731 830 731 832 C731.99 832.33 732.98 832.66 734 833 C735.60812665 834.73226275 737.14197316 836.5345009 738.625 838.375 C739.42164063 839.35210938 740.21828125 840.32921875 741.0390625 841.3359375 C743 844 743 844 744 847 C745.33055563 847.67219338 746.66421574 848.33825789 748 849 C749.52734375 850.76953125 749.52734375 850.76953125 750.9375 852.8125 C752.66549233 855.22134717 754.26934665 857.26934665 756.375 859.375 C759.64789745 862.64789745 762.40071748 866.23304974 765.23046875 869.890625 C766.8290786 872.08029809 766.8290786 872.08029809 769 873 C769 873.66 769 874.32 769 875 C769.66 875 770.32 875 771 875 C772.37248681 876.55315386 773.67478701 878.16885684 774.9375 879.8125 C777.68199668 883.40146267 777.68199668 883.40146267 780.75390625 886.69921875 C782 888 782 888 782 890 C782.66 890 783.32 890 784 890 C789 895.47619048 789 895.47619048 789 898 C789.66 898 790.32 898 791 898 C792.56432787 899.69274284 794.05328572 901.45569852 795.5 903.25 C796.2940625 904.22453125 797.088125 905.1990625 797.90625 906.203125 C799.58748034 908.44894762 800.88135899 910.4465803 802 913 C802.66 913 803.32 913 804 913 C804 913.66 804 914.32 804 915 C804.66 915 805.32 915 806 915 C807.56432787 916.69274284 809.05328572 918.45569852 810.5 920.25 C811.2940625 921.22453125 812.088125 922.1990625 812.90625 923.203125 C814.58748034 925.44894762 815.88135899 927.4465803 817 930 C817.66 930 818.32 930 819 930 C820.51740976 931.69903023 821.965128 933.46072723 823.375 935.25 C825.59229313 938.05313312 827.7305752 940.73701197 830.2890625 943.234375 C832 945 832 945 832 947 C832.66 947 833.32 947 834 947 C839 952.47619048 839 952.47619048 839 955 C839.66 955 840.32 955 841 955 C842.56432787 956.69274284 844.05328572 958.45569852 845.5 960.25 C846.2940625 961.22453125 847.088125 962.1990625 847.90625 963.203125 C849.58748034 965.44894762 850.88135899 967.4465803 852 970 C852.66 970 853.32 970 854 970 C854 970.66 854 971.32 854 972 C854.66 972 855.32 972 856 972 C857.56432787 973.69274284 859.05328572 975.45569852 860.5 977.25 C861.2940625 978.22453125 862.088125 979.1990625 862.90625 980.203125 C865 983 865 983 866.09375 985.296875 C866.9425407 987.36359766 866.9425407 987.36359766 870 988 C874 992.45714286 874 992.45714286 874 995 C874.66 995 875.32 995 876 995 C877.51740976 996.69903023 878.965128 998.46072723 880.375 1000.25 C882.59229313 1003.05313312 884.7305752 1005.73701197 887.2890625 1008.234375 C889 1010 889 1010 889 1012 C889.99 1012.33 890.98 1012.66 892 1013 C893.71875 1014.9609375 893.71875 1014.9609375 895.5 1017.375 C897.93870086 1020.66845955 897.93870086 1020.66845955 900.71875 1023.6640625 C902 1025 902 1025 902 1027 C902.59941406 1027.25136719 903.19882813 1027.50273438 903.81640625 1027.76171875 C906.29362153 1029.16650809 907.32960288 1030.48305348 908.9375 1032.8125 C911.38155713 1036.21584955 913.99467819 1039.06797872 917 1042 C918.28417058 1043.3835729 919.55431602 1044.78025406 920.8125 1046.1875 C921.41707031 1046.86167969 922.02164063 1047.53585937 922.64453125 1048.23046875 C924 1050 924 1050 924 1052 C924.99 1052.33 925.98 1052.66 927 1053 C928.6484375 1054.890625 928.6484375 1054.890625 930.375 1057.25 C933.04635834 1060.79693926 935.81751428 1063.89513588 939 1067 C940.45021894 1068.55070227 941.88679908 1070.11422653 943.3125 1071.6875 C944.00988281 1072.45449219 944.70726563 1073.22148438 945.42578125 1074.01171875 C947 1076 947 1076 947 1078 C947.66 1078 948.32 1078 949 1078 C949 1078.66 949 1079.32 949 1080 C949.66 1080 950.32 1080 951 1080 C952.56432787 1081.69274284 954.05328572 1083.45569852 955.5 1085.25 C956.2940625 1086.22453125 957.088125 1087.1990625 957.90625 1088.203125 C959.58748034 1090.44894762 960.88135899 1092.4465803 962 1095 C962.66 1095 963.32 1095 964 1095 C969 1100.47619048 969 1100.47619048 969 1103 C969.66 1103 970.32 1103 971 1103 C972.56432787 1104.69274284 974.05328572 1106.45569852 975.5 1108.25 C976.2940625 1109.22453125 977.088125 1110.1990625 977.90625 1111.203125 C979.58748034 1113.44894762 980.88135899 1115.4465803 982 1118 C982.66 1118 983.32 1118 984 1118 C984 1118.66 984 1119.32 984 1120 C984.99 1120.33 985.98 1120.66 987 1121 C988.97265625 1123.14453125 988.97265625 1123.14453125 991.0625 1125.8125 C991.75472656 1126.68519531 992.44695313 1127.55789063 993.16015625 1128.45703125 C995 1131 995 1131 995.99609375 1133.19921875 C997.28835072 1135.51723611 998.64306902 1135.86849424 1001 1137 C1002.52734375 1138.76953125 1002.52734375 1138.76953125 1003.9375 1140.8125 C1005.66549233 1143.22134717 1007.26934665 1145.26934665 1009.375 1147.375 C1011.80926321 1149.80926321 1013.87254945 1152.29885492 1016 1155 C1018.82258223 1158.57702944 1021.7338763 1161.81762306 1025 1165 C1026.28396235 1166.38376614 1027.55401971 1167.78051904 1028.8125 1169.1875 C1029.71935547 1170.19876953 1029.71935547 1170.19876953 1030.64453125 1171.23046875 C1032 1173 1032 1173 1032 1175 C1032.99 1175.33 1033.98 1175.66 1035 1176 C1036.71875 1177.9609375 1036.71875 1177.9609375 1038.5 1180.375 C1040.93870086 1183.66845955 1040.93870086 1183.66845955 1043.71875 1186.6640625 C1045 1188 1045 1188 1045 1190 C1045.59554687 1190.24621094 1046.19109375 1190.49242187 1046.8046875 1190.74609375 C1049.3532367 1192.20175975 1050.46165672 1193.66327972 1052.125 1196.0625 C1054.11074647 1199.04627522 1054.11074647 1199.04627522 1057 1201 C1057 1201.66 1057 1202.32 1057 1203 C1057.66 1203 1058.32 1203 1059 1203 C1060.37248681 1204.55315386 1061.67478701 1206.16885684 1062.9375 1207.8125 C1065.68199668 1211.40146267 1065.68199668 1211.40146267 1068.75390625 1214.69921875 C1070 1216 1070 1216 1070 1218 C1070.66 1218 1071.32 1218 1072 1218 C1077 1223.47619048 1077 1223.47619048 1077 1226 C1077.66 1226 1078.32 1226 1079 1226 C1080.56432787 1227.69274284 1082.05328572 1229.45569852 1083.5 1231.25 C1084.2940625 1232.22453125 1085.088125 1233.1990625 1085.90625 1234.203125 C1087.58748034 1236.44894762 1088.88135899 1238.4465803 1090 1241 C1090.66 1241 1091.32 1241 1092 1241 C1092 1241.66 1092 1242.32 1092 1243 C1092.66 1243 1093.32 1243 1094 1243 C1095.56432787 1244.69274284 1097.05328572 1246.45569852 1098.5 1248.25 C1099.2940625 1249.22453125 1100.088125 1250.1990625 1100.90625 1251.203125 C1102.58748034 1253.44894762 1103.88135899 1255.4465803 1105 1258 C1105.66 1258 1106.32 1258 1107 1258 C1107 1258.66 1107 1259.32 1107 1260 C1107.66 1260 1108.32 1260 1109 1260 C1110.56432787 1261.69274284 1112.05328572 1263.45569852 1113.5 1265.25 C1114.2940625 1266.22453125 1115.088125 1267.1990625 1115.90625 1268.203125 C1117.58748034 1270.44894762 1118.88135899 1272.4465803 1120 1275 C1120.66 1275 1121.32 1275 1122 1275 C1127 1280.47619048 1127 1280.47619048 1127 1283 C1127.66 1283 1128.32 1283 1129 1283 C1130.56432787 1284.69274284 1132.05328572 1286.45569852 1133.5 1288.25 C1134.2940625 1289.22453125 1135.088125 1290.1990625 1135.90625 1291.203125 C1137.58748034 1293.44894762 1138.88135899 1295.4465803 1140 1298 C1140.66 1298 1141.32 1298 1142 1298 C1142 1298.66 1142 1299.32 1142 1300 C1142.66 1300 1143.32 1300 1144 1300 C1145.37248681 1301.55315386 1146.67478701 1303.16885684 1147.9375 1304.8125 C1150.68199668 1308.40146267 1150.68199668 1308.40146267 1153.75390625 1311.69921875 C1155 1313 1155 1313 1155 1315 C1155.99 1315.33 1156.98 1315.66 1158 1316 C1162 1320.45714286 1162 1320.45714286 1162 1323 C1162.66 1323 1163.32 1323 1164 1323 C1165.45402342 1324.6376272 1166.83848678 1326.33734196 1168.1875 1328.0625 C1170.8708039 1331.42414313 1173.52038385 1334.64710288 1176.625 1337.625 C1179.9240692 1340.80188146 1182.62113714 1344.30283917 1185.38671875 1347.9453125 C1187.40201246 1350.51200618 1189.66515398 1352.72210144 1192 1355 C1193.45021894 1356.55070227 1194.88679908 1358.11422653 1196.3125 1359.6875 C1197.00988281 1360.45449219 1197.70726563 1361.22148438 1198.42578125 1362.01171875 C1200 1364 1200 1364 1200 1366 C1200.66 1366 1201.32 1366 1202 1366 C1203.37212301 1367.53195272 1204.6715446 1369.12921081 1205.9375 1370.75 C1209.92771453 1375.76051368 1214.12098493 1380.48289701 1218.54467773 1385.11425781 C1222 1388.78889698 1222 1388.78889698 1222 1391 C1222.66 1391 1223.32 1391 1224 1391 C1225.56432787 1392.69274284 1227.05328572 1394.45569852 1228.5 1396.25 C1229.2940625 1397.22453125 1230.088125 1398.1990625 1230.90625 1399.203125 C1232.58748034 1401.44894762 1233.88135899 1403.4465803 1235 1406 C1235.66 1406 1236.32 1406 1237 1406 C1237 1406.66 1237 1407.32 1237 1408 C1237.66 1408 1238.32 1408 1239 1408 C1240.56432787 1409.69274284 1242.05328572 1411.45569852 1243.5 1413.25 C1244.2940625 1414.22453125 1245.088125 1415.1990625 1245.90625 1416.203125 C1247.58748034 1418.44894762 1248.88135899 1420.4465803 1250 1423 C1250.66 1423 1251.32 1423 1252 1423 C1253.41438406 1424.57286684 1254.75604401 1426.21139996 1256.0625 1427.875 C1259.97045961 1432.77898178 1264.06024465 1437.4233383 1268.34765625 1442.00390625 C1270 1444 1270 1444 1270 1446 C1270.66 1446 1271.32 1446 1272 1446 C1273.55961601 1447.74001935 1275.04949575 1449.54303197 1276.5 1451.375 C1279.60759138 1455.31482541 1279.60759138 1455.31482541 1283 1459 C1282.81180196 1463.79905009 1281.56300044 1466.94717259 1279.15039062 1471.03442383 C1277.09478337 1474.54666788 1275.21223439 1478.15174569 1273.3125 1481.75 C1272.66112061 1482.98302856 1272.66112061 1482.98302856 1271.99658203 1484.2409668 C1268.96603366 1490.02961141 1266.12698917 1495.88712708 1263.375 1501.8125 C1260.21153935 1508.61829379 1256.75505592 1515.0840053 1252.9609375 1521.5625 C1248.0050348 1530.2501382 1243.77328788 1539.32607211 1239.54077148 1548.38208008 C1236.50267404 1554.87883673 1233.44504798 1561.14119523 1229.6015625 1567.20703125 C1226.83752608 1572.02724111 1224.56929119 1577.0943591 1222.24609375 1582.13867188 C1220.03724259 1586.91403515 1217.654532 1591.45756902 1215 1596 C1213.57843284 1598.56972963 1212.19157953 1601.15725656 1210.8125 1603.75 C1210.23375122 1604.83776733 1210.23375122 1604.83776733 1209.64331055 1605.94750977 C1206.27851326 1612.33987521 1203.21189528 1618.85495216 1200.1652832 1625.40332031 C1198.28690141 1629.40449984 1196.36343772 1633.25626257 1194 1637 C1191.17872063 1641.47219286 1188.97551118 1646.15093021 1186.75 1650.9375 C1182.15767189 1660.80516774 1177.13498376 1670.40611824 1172 1680 C1170.45544193 1682.8943013 1168.9138565 1685.79016335 1167.375 1688.6875 C1167.00503906 1689.38375488 1166.63507813 1690.08000977 1166.25390625 1690.79736328 C1163.42189645 1696.14991184 1160.70589944 1701.55466054 1158.01904297 1706.98120117 C1155.59210575 1711.86446757 1153.06699857 1716.68906795 1150.5 1721.5 C1142.8889465 1735.79020754 1135.88090774 1750.34621501 1129 1765 C1128.34 1765 1127.68 1765 1127 1765 C1126.87326904 1765.57347168 1126.74653809 1766.14694336 1126.6159668 1766.73779297 C1125.52577787 1770.74163386 1123.59392177 1774.38888748 1121.8125 1778.125 C1121.40394775 1778.98593262 1120.99539551 1779.84686523 1120.57446289 1780.73388672 C1118.14276961 1785.79667884 1115.52959694 1790.60675249 1112.52734375 1795.35546875 C1110.07969922 1799.59346196 1108.08484325 1804.04318713 1106.06616211 1808.49853516 C1104.15355247 1812.68494247 1102.08278348 1816.74201112 1099.8671875 1820.77758789 C1099.06063721 1822.24887901 1099.06063721 1822.24887901 1098.23779297 1823.74989319 C1097.82932129 1824.49242844 1097.42084961 1825.23496368 1097 1826 C1032.34594705 1832.33389069 967.65407476 1838.10493422 902.76702881 1841.41290283 C901.78394396 1841.46315561 900.80085912 1841.51340838 899.78798382 1841.56518396 C878.34514244 1842.65843379 856.89906225 1843.66618848 835.4481758 1844.58777992 C824.90598276 1845.04121592 814.36465914 1845.51324171 803.82373047 1845.99511719 C802.77560707 1846.04271348 801.72748368 1846.09030978 800.64759896 1846.13934839 C770.54107224 1847.51428369 740.63051831 1849.74549515 710.65310314 1852.84010413 C610.49179294 1863.17421556 508.95105555 1868.45853273 205.12695806 1729.99436462 C151.55957246 1686.38758868 102.66723575 1637.061267 -25.92235381 1322.9304565 C-35.79262889 1225.87411409 -36.46565103 1128.21790606 -26.68414887 794.11895855 C-23.62963018 732.04922953 -21.45028317 670.00696432 -20.06723105 607.87738587 C-19.99514216 604.63979321 -19.92263377 601.40221017 -19.85003984 598.16462879 C-19.36932985 576.69575617 -18.90541193 555.2265414 -18.45269506 533.7570615 C-17.55296767 491.09571336 -16.55507904 448.43683484 -15.48898988 405.77932571 C-15.43830497 403.75123546 -15.3876891 401.72314349 -15.33714258 399.69504979 C-13.08203378 309.2354613 -9.69042241 218.8325177 -5.77636719 128.43066406 C-5.72180248 127.17013906 -5.72180248 127.17013906 -5.66613545 125.88414891 C-3.84869766 83.91949858 -1.96486821 41.95801653 0 0 Z " fill="#EE3135" transform="translate(1277,0)"/>
<path d="M0 0 C0 271.92 0 543.84 0 824 C-0.66 824 -1.32 824 -2 824 C-2 824.66 -2 825.32 -2 826 C-3.375 827.625 -3.375 827.625 -5 829 C-5.66 829 -6.32 829 -7 829 C-7 829.66 -7 830.32 -7 831 C-8.375 832.625 -8.375 832.625 -10 834 C-10.66 834 -11.32 834 -12 834 C-12 834.66 -12 835.32 -12 836 C-13.375 837.625 -13.375 837.625 -15 839 C-15.66 839 -16.32 839 -17 839 C-17 839.66 -17 840.32 -17 841 C-18.375 842.625 -18.375 842.625 -20 844 C-20.66 844 -21.32 844 -22 844 C-22 844.66 -22 845.32 -22 846 C-23.375 847.625 -23.375 847.625 -25 849 C-25.66 849 -26.32 849 -27 849 C-27 849.66 -27 850.32 -27 851 C-28.375 852.625 -28.375 852.625 -30 854 C-30.66 854 -31.32 854 -32 854 C-32 854.66 -32 855.32 -32 856 C-33.375 857.625 -33.375 857.625 -35 859 C-35.66 859 -36.32 859 -37 859 C-37 859.66 -37 860.32 -37 861 C-38.375 862.625 -38.375 862.625 -40 864 C-40.66 864 -41.32 864 -42 864 C-42 864.66 -42 865.32 -42 866 C-43.375 867.625 -43.375 867.625 -45 869 C-45.66 869 -46.32 869 -47 869 C-47 869.66 -47 870.32 -47 871 C-48.375 872.625 -48.375 872.625 -50 874 C-50.66 874 -51.32 874 -52 874 C-52 874.66 -52 875.32 -52 876 C-53.375 877.625 -53.375 877.625 -55 879 C-55.66 879 -56.32 879 -57 879 C-57 879.66 -57 880.32 -57 881 C-58.375 882.625 -58.375 882.625 -60 884 C-60.66 884 -61.32 884 -62 884 C-62 884.66 -62 885.32 -62 886 C-63.375 887.625 -63.375 887.625 -65 889 C-65.66 889 -66.32 889 -67 889 C-67 889.66 -67 890.32 -67 891 C-68.3203125 892.26171875 -68.3203125 892.26171875 -70.125 893.6875 C-72.66715116 895.78643042 -74.85139734 897.88590335 -76.9375 900.4375 C-79.71024844 903.79593595 -82.80691843 906.55560733 -86.1171875 909.375 C-88.53866683 911.46490747 -90.76929011 913.70900065 -93 916 C-98 921 -98 921 -100.5 923.4375 C-102.36981005 925.3540553 -104.02241847 927.23236882 -105.6875 929.3125 C-106.450625 930.199375 -107.21375 931.08625 -108 932 C-108.66 932 -109.32 932 -110 932 C-110 932.66 -110 933.32 -110 934 C-111.375 935.625 -111.375 935.625 -113 937 C-113.66 937 -114.32 937 -115 937 C-115 937.66 -115 938.32 -115 939 C-116.375 940.625 -116.375 940.625 -118 942 C-118.66 942 -119.32 942 -120 942 C-120 942.66 -120 943.32 -120 944 C-121.375 945.625 -121.375 945.625 -123 947 C-123.66 947 -124.32 947 -125 947 C-125 947.66 -125 948.32 -125 949 C-126.375 950.625 -126.375 950.625 -128 952 C-128.66 952 -129.32 952 -130 952 C-130 952.66 -130 953.32 -130 954 C-131.375 955.625 -131.375 955.625 -133 957 C-133.66 957 -134.32 957 -135 957 C-135 957.66 -135 958.32 -135 959 C-136.375 960.625 -136.375 960.625 -138 962 C-138.66 962 -139.32 962 -140 962 C-140 962.66 -140 963.32 -140 964 C-141.375 965.625 -141.375 965.625 -143 967 C-143.66 967 -144.32 967 -145 967 C-145 967.66 -145 968.32 -145 969 C-146.375 970.625 -146.375 970.625 -148 972 C-148.66 972 -149.32 972 -150 972 C-150 972.66 -150 973.32 -150 974 C-151.375 975.625 -151.375 975.625 -153 977 C-153.66 977 -154.32 977 -155 977 C-155 977.66 -155 978.32 -155 979 C-156.375 980.625 -156.375 980.625 -158 982 C-158.66 982 -159.32 982 -160 982 C-160 982.66 -160 983.32 -160 984 C-161.375 985.625 -161.375 985.625 -163 987 C-163.66 987 -164.32 987 -165 987 C-165 987.66 -165 988.32 -165 989 C-166.375 990.625 -166.375 990.625 -168 992 C-168.66 992 -169.32 992 -170 992 C-170 992.66 -170 993.32 -170 994 C-171.375 995.625 -171.375 995.625 -173 997 C-173.66 997 -174.32 997 -175 997 C-175 997.66 -175 998.32 -175 999 C-176.375 1000.625 -176.375 1000.625 -178 1002 C-178.66 1002 -179.32 1002 -180 1002 C-180 1002.66 -180 1003.32 -180 1004 C-181.375 1005.625 -181.375 1005.625 -183 1007 C-183.66 1007 -184.32 1007 -185 1007 C-185 1007.66 -185 1008.32 -185 1009 C-186.375 1010.625 -186.375 1010.625 -188 1012 C-188.66 1012 -189.32 1012 -190 1012 C-190 1012.66 -190 1013.32 -190 1014 C-191.375 1015.625 -191.375 1015.625 -193 1017 C-193.66 1017 -194.32 1017 -195 1017 C-195 1017.66 -195 1018.32 -195 1019 C-196.375 1020.625 -196.375 1020.625 -198 1022 C-198.66 1022 -199.32 1022 -200 1022 C-200 1022.66 -200 1023.32 -200 1024 C-201.375 1025.625 -201.375 1025.625 -203 1027 C-203.66 1027 -204.32 1027 -205 1027 C-205 1027.66 -205 1028.32 -205 1029 C-206.375 1030.625 -206.375 1030.625 -208 1032 C-208.66 1032 -209.32 1032 -210 1032 C-210 1032.66 -210 1033.32 -210 1034 C-211.375 1035.625 -211.375 1035.625 -213 1037 C-213.66 1037 -214.32 1037 -215 1037 C-215 1037.66 -215 1038.32 -215 1039 C-216.375 1040.625 -216.375 1040.625 -218 1042 C-218.66 1042 -219.32 1042 -220 1042 C-220 1042.66 -220 1043.32 -220 1044 C-221.375 1045.625 -221.375 1045.625 -223 1047 C-223.66 1047 -224.32 1047 -225 1047 C-225 1047.66 -225 1048.32 -225 1049 C-226.375 1050.625 -226.375 1050.625 -228 1052 C-228.66 1052 -229.32 1052 -230 1052 C-230 1052.66 -230 1053.32 -230 1054 C-231.375 1055.625 -231.375 1055.625 -233 1057 C-233.66 1057 -234.32 1057 -235 1057 C-235 1057.66 -235 1058.32 -235 1059 C-236.375 1060.625 -236.375 1060.625 -238 1062 C-238.66 1062 -239.32 1062 -240 1062 C-240 1062.66 -240 1063.32 -240 1064 C-241.375 1065.625 -241.375 1065.625 -243 1067 C-243.66 1067 -244.32 1067 -245 1067 C-245 1067.66 -245 1068.32 -245 1069 C-246.375 1070.625 -246.375 1070.625 -248 1072 C-248.66 1072 -249.32 1072 -250 1072 C-250 1072.66 -250 1073.32 -250 1074 C-251.375 1075.625 -251.375 1075.625 -253 1077 C-253.66 1077 -254.32 1077 -255 1077 C-255 1077.66 -255 1078.32 -255 1079 C-256.375 1080.625 -256.375 1080.625 -258 1082 C-258.66 1082 -259.32 1082 -260 1082 C-260 1082.66 -260 1083.32 -260 1084 C-261.375 1085.625 -261.375 1085.625 -263 1087 C-263.66 1087 -264.32 1087 -265 1087 C-265 1087.66 -265 1088.32 -265 1089 C-266.375 1090.625 -266.375 1090.625 -268 1092 C-268.66 1092 -269.32 1092 -270 1092 C-270 1092.66 -270 1093.32 -270 1094 C-271.375 1095.625 -271.375 1095.625 -273 1097 C-273.66 1097 -274.32 1097 -275 1097 C-275 1097.66 -275 1098.32 -275 1099 C-276.375 1100.625 -276.375 1100.625 -278 1102 C-278.66 1102 -279.32 1102 -280 1102 C-280 1102.66 -280 1103.32 -280 1104 C-281.375 1105.625 -281.375 1105.625 -283 1107 C-283.66 1107 -284.32 1107 -285 1107 C-285 1107.66 -285 1108.32 -285 1109 C-286.375 1110.625 -286.375 1110.625 -288 1112 C-288.66 1112 -289.32 1112 -290 1112 C-290 1112.66 -290 1113.32 -290 1114 C-291.375 1115.625 -291.375 1115.625 -293 1117 C-293.66 1117 -294.32 1117 -295 1117 C-295 1117.66 -295 1118.32 -295 1119 C-296.375 1120.625 -296.375 1120.625 -298 1122 C-298.66 1122 -299.32 1122 -300 1122 C-300 1122.66 -300 1123.32 -300 1124 C-301.375 1125.625 -301.375 1125.625 -303 1127 C-303.66 1127 -304.32 1127 -305 1127 C-305 1127.66 -305 1128.32 -305 1129 C-306.375 1130.625 -306.375 1130.625 -308 1132 C-308.66 1132 -309.32 1132 -310 1132 C-310 1132.66 -310 1133.32 -310 1134 C-311.375 1135.625 -311.375 1135.625 -313 1137 C-313.66 1137 -314.32 1137 -315 1137 C-315 1137.66 -315 1138.32 -315 1139 C-316.375 1140.625 -316.375 1140.625 -318 1142 C-318.66 1142 -319.32 1142 -320 1142 C-320 1142.66 -320 1143.32 -320 1144 C-321.375 1145.625 -321.375 1145.625 -323 1147 C-323.66 1147 -324.32 1147 -325 1147 C-325 1147.66 -325 1148.32 -325 1149 C-326.375 1150.625 -326.375 1150.625 -328 1152 C-328.66 1152 -329.32 1152 -330 1152 C-330 1152.66 -330 1153.32 -330 1154 C-331.3203125 1155.26171875 -331.3203125 1155.26171875 -333.125 1156.6875 C-335.66715116 1158.78643042 -337.85139734 1160.88590335 -339.9375 1163.4375 C-342.7106813 1166.79646023 -345.80963606 1169.5555401 -349.1171875 1172.37890625 C-352.65092046 1175.42143566 -355.77197628 1178.68504607 -358.6875 1182.3125 C-359.450625 1183.199375 -360.21375 1184.08625 -361 1185 C-361.66 1185 -362.32 1185 -363 1185 C-363 1185.66 -363 1186.32 -363 1187 C-366.35108832 1188.67554416 -370.13066585 1188.14364808 -373.81609631 1188.1398077 C-374.74491235 1188.14275912 -375.67372839 1188.14571055 -376.63069037 1188.14875141 C-379.77831273 1188.15749142 -382.92589856 1188.15902748 -386.0735321 1188.16062927 C-388.33891046 1188.16535689 -390.60428797 1188.17050734 -392.86966449 1188.17604691 C-399.12249515 1188.18999437 -405.37531998 1188.19754826 -411.62816226 1188.2040199 C-417.67050398 1188.21119325 -423.71283568 1188.22300315 -429.7551703 1188.23449489 C-446.71949746 1188.26637238 -463.68383383 1188.28618502 -480.64818093 1188.30378041 C-485.24169502 1188.3085468 -489.83520882 1188.3135557 -494.42872262 1188.31858563 C-522.93076461 1188.34962968 -551.43280892 1188.37625346 -579.93486309 1188.39300442 C-586.54047843 1188.3969418 -593.14609373 1188.40095361 -599.75170898 1188.4050293 C-600.57239138 1188.40553096 -601.39307377 1188.40603263 -602.23862533 1188.4065495 C-628.85237167 1188.42297082 -655.46602611 1188.46143113 -682.07972723 1188.5123164 C-709.42969563 1188.56451425 -736.77961508 1188.59731552 -764.1296343 1188.60458195 C-767.99096713 1188.60561058 -771.85229986 1188.60684691 -775.71363258 1188.60820198 C-776.47360039 1188.60846002 -777.23356819 1188.60871806 -778.01656532 1188.60898391 C-790.25731135 1188.61368274 -802.49793647 1188.63863356 -814.73863721 1188.67095341 C-827.03842536 1188.7029562 -839.33807708 1188.71297311 -851.63790192 1188.70052146 C-858.30404677 1188.69436943 -864.96989159 1188.69867951 -871.63600159 1188.7286911 C-877.73487799 1188.75592565 -883.83310218 1188.75565113 -889.93199227 1188.73318065 C-892.14201161 1188.72994121 -894.35207363 1188.73692132 -896.56202158 1188.75497787 C-899.56038138 1188.77799713 -902.55639089 1188.76421472 -905.55469799 1188.74108028 C-906.84984179 1188.76429464 -906.84984179 1188.76429464 -908.17115012 1188.78797796 C-913.74675649 1188.69264579 -916.59281628 1187.39006835 -920.6016842 1183.49739916 C-921.06312842 1183.00325743 -921.52457263 1182.50911571 -922 1182 C-922.67289063 1181.28714844 -923.34578125 1180.57429688 -924.0390625 1179.83984375 C-924.56242188 1179.21207031 -925.08578125 1178.58429688 -925.625 1177.9375 C-928.29042268 1174.80800819 -931.05236726 1171.87006346 -934 1169 C-949 1154 -949 1154 -951.4375 1151.5 C-953.3540553 1149.63018995 -955.23236882 1147.97758153 -957.3125 1146.3125 C-958.199375 1145.549375 -959.08625 1144.78625 -960 1144 C-960 1143.34 -960 1142.68 -960 1142 C-960.66 1142 -961.32 1142 -962 1142 C-963.625 1140.625 -963.625 1140.625 -965 1139 C-965 1138.34 -965 1137.68 -965 1137 C-965.66 1137 -966.32 1137 -967 1137 C-968.625 1135.625 -968.625 1135.625 -970 1134 C-970 1133.34 -970 1132.68 -970 1132 C-970.66 1132 -971.32 1132 -972 1132 C-973.625 1130.625 -973.625 1130.625 -975 1129 C-975 1128.34 -975 1127.68 -975 1127 C-975.66 1127 -976.32 1127 -977 1127 C-978.625 1125.625 -978.625 1125.625 -980 1124 C-980 1123.34 -980 1122.68 -980 1122 C-980.66 1122 -981.32 1122 -982 1122 C-983.625 1120.625 -983.625 1120.625 -985 1119 C-985 1118.34 -985 1117.68 -985 1117 C-985.66 1117 -986.32 1117 -987 1117 C-988.625 1115.625 -988.625 1115.625 -990 1114 C-990 1113.34 -990 1112.68 -990 1112 C-990.66 1112 -991.32 1112 -992 1112 C-993.625 1110.625 -993.625 1110.625 -995 1109 C-995 1108.34 -995 1107.68 -995 1107 C-995.66 1107 -996.32 1107 -997 1107 C-998.625 1105.625 -998.625 1105.625 -1000 1104 C-1000 1103.34 -1000 1102.68 -1000 1102 C-1000.66 1102 -1001.32 1102 -1002 1102 C-1003.625 1100.625 -1003.625 1100.625 -1005 1099 C-1005 1098.34 -1005 1097.68 -1005 1097 C-1005.66 1097 -1006.32 1097 -1007 1097 C-1008.625 1095.625 -1008.625 1095.625 -1010 1094 C-1010 1093.34 -1010 1092.68 -1010 1092 C-1010.66 1092 -1011.32 1092 -1012 1092 C-1013.625 1090.625 -1013.625 1090.625 -1015 1089 C-1015 1088.34 -1015 1087.68 -1015 1087 C-1015.66 1087 -1016.32 1087 -1017 1087 C-1018.625 1085.625 -1018.625 1085.625 -1020 1084 C-1020 1083.34 -1020 1082.68 -1020 1082 C-1020.66 1082 -1021.32 1082 -1022 1082 C-1023.625 1080.625 -1023.625 1080.625 -1025 1079 C-1025 1078.34 -1025 1077.68 -1025 1077 C-1025.66 1077 -1026.32 1077 -1027 1077 C-1028.625 1075.625 -1028.625 1075.625 -1030 1074 C-1030 1073.34 -1030 1072.68 -1030 1072 C-1030.66 1072 -1031.32 1072 -1032 1072 C-1033.625 1070.625 -1033.625 1070.625 -1035 1069 C-1035 1068.34 -1035 1067.68 -1035 1067 C-1035.66 1067 -1036.32 1067 -1037 1067 C-1038.625 1065.625 -1038.625 1065.625 -1040 1064 C-1040 1063.34 -1040 1062.68 -1040 1062 C-1040.66 1062 -1041.32 1062 -1042 1062 C-1043.625 1060.625 -1043.625 1060.625 -1045 1059 C-1045 1058.34 -1045 1057.68 -1045 1057 C-1045.66 1057 -1046.32 1057 -1047 1057 C-1048.625 1055.625 -1048.625 1055.625 -1050 1054 C-1050 1053.34 -1050 1052.68 -1050 1052 C-1050.66 1052 -1051.32 1052 -1052 1052 C-1053.33203125 1050.64453125 -1053.33203125 1050.64453125 -1054.8125 1048.8125 C-1058.98232418 1043.68126863 -1063.81762265 1039.18883926 -1068.51953125 1034.55078125 C-1070.08173887 1033.00329271 -1071.64300669 1031.45486296 -1073.20385742 1029.90600586 C-1074.2834909 1028.83653132 -1075.36489711 1027.76884361 -1076.44799805 1026.70288086 C-1078.01818611 1025.15682406 -1079.58193689 1023.60450772 -1081.14453125 1022.05078125 C-1082.07628174 1021.12950439 -1083.00803223 1020.20822754 -1083.96801758 1019.2590332 C-1086 1017 -1086 1017 -1086 1015 C-1086.639375 1014.731875 -1087.27875 1014.46375 -1087.9375 1014.1875 C-1090 1013 -1090 1013 -1091 1010 C-1091.66 1009.71125 -1092.32 1009.4225 -1093 1009.125 C-1095 1008 -1095 1008 -1096.125 1005.8125 C-1095.95044081 1001.88491814 -1094.10368362 1000.20814161 -1091.54296875 997.35546875 C-1090 996 -1090 996 -1088 996 C-1087.72849121 995.40558105 -1087.45698242 994.81116211 -1087.17724609 994.19873047 C-1086.02089284 992.03902134 -1084.8563103 990.5758627 -1083.1640625 988.8203125 C-1082.59977539 988.22742432 -1082.03548828 987.63453613 -1081.45410156 987.02368164 C-1080.85049805 986.3971167 -1080.24689453 985.77055176 -1079.625 985.125 C-1074.10733489 979.32800489 -1068.81594203 973.39970467 -1063.73291016 967.21728516 C-1062.52953603 965.77633143 -1061.26982784 964.38274878 -1060 963 C-1059.34 963 -1058.68 963 -1058 963 C-1057.7628125 962.45859375 -1057.525625 961.9171875 -1057.28125 961.359375 C-1055.65652243 958.36749863 -1053.6498123 955.88840601 -1051.5 953.25 C-1050.7059375 952.26515625 -1049.911875 951.2803125 -1049.09375 950.265625 C-1048.05734375 949.14414063 -1048.05734375 949.14414063 -1047 948 C-1046.34 948 -1045.68 948 -1045 948 C-1045 947.34 -1045 946.68 -1045 946 C-1043.35697047 944.31002677 -1041.68528688 942.64783606 -1040 941 C-1039.0930427 939.90495213 -1038.19687516 938.80086515 -1037.3125 937.6875 C-1036.549375 936.800625 -1035.78625 935.91375 -1035 935 C-1034.34 935 -1033.68 935 -1033 935 C-1032.7525 934.443125 -1032.505 933.88625 -1032.25 933.3125 C-1030.77075182 930.57589087 -1029.06532561 928.32349131 -1027 926 C-1026.34 926 -1025.68 926 -1025 926 C-1024.5978125 925.13375 -1024.5978125 925.13375 -1024.1875 924.25 C-1022.97070811 921.94449957 -1021.69666121 919.97943808 -1020 918 C-1019.34 918 -1018.68 918 -1018 918 C-1017.67 917.01 -1017.34 916.02 -1017 915 C-1016.34 915 -1015.68 915 -1015 915 C-1014.77441406 914.45601562 -1014.54882812 913.91203125 -1014.31640625 913.3515625 C-1012.58776213 910.26359881 -1010.35449856 907.95545026 -1007.9375 905.375 C-1004.58466353 901.95790247 -1004.58466353 901.95790247 -1002 898 C-1001.34 898 -1000.68 898 -1000 898 C-1000 897.34 -1000 896.68 -1000 896 C-998.35697047 894.31002677 -996.68528688 892.64783606 -995 891 C-994.0930427 889.90495213 -993.19687516 888.80086515 -992.3125 887.6875 C-991.549375 886.800625 -990.78625 885.91375 -990 885 C-989.34 885 -988.68 885 -988 885 C-987.62875 884.1646875 -987.62875 884.1646875 -987.25 883.3125 C-985.77075182 880.57589087 -984.06532561 878.32349131 -982 876 C-981.34 876 -980.68 876 -980 876 C-979.5978125 875.13375 -979.5978125 875.13375 -979.1875 874.25 C-977.97070811 871.94449957 -976.69666121 869.97943808 -975 868 C-974.34 868 -973.68 868 -973 868 C-972.67 867.01 -972.34 866.02 -972 865 C-971.34 865 -970.68 865 -970 865 C-969.77441406 864.45601562 -969.54882812 863.91203125 -969.31640625 863.3515625 C-967.58776213 860.26359881 -965.35449856 857.95545026 -962.9375 855.375 C-959.58466353 851.95790247 -959.58466353 851.95790247 -957 848 C-956.34 848 -955.68 848 -955 848 C-955 847.34 -955 846.68 -955 846 C-954.34 846 -953.68 846 -953 846 C-952.731875 845.41734375 -952.46375 844.8346875 -952.1875 844.234375 C-950.98519009 841.97213399 -949.66174087 840.19423682 -948 838.25 C-947.484375 837.63640625 -946.96875 837.0228125 -946.4375 836.390625 C-945 835 -945 835 -943 835 C-942.938125 834.443125 -942.87625 833.88625 -942.8125 833.3125 C-941.65202666 830.00961433 -939.52873996 828.41879475 -937 826 C-935.16094351 823.87618638 -933.34969224 821.73211419 -931.55078125 819.57421875 C-931.03902344 819.05472656 -930.52726563 818.53523438 -930 818 C-929.34 818 -928.68 818 -928 818 C-927.67 817.01 -927.34 816.02 -927 815 C-926.34 815 -925.68 815 -925 815 C-924.77441406 814.45601562 -924.54882812 813.91203125 -924.31640625 813.3515625 C-922.58776213 810.26359881 -920.35449856 807.95545026 -917.9375 805.375 C-914.58466353 801.95790247 -914.58466353 801.95790247 -912 798 C-911.34 798 -910.68 798 -910 798 C-910 797.34 -910 796.68 -910 796 C-909.34 796 -908.68 796 -908 796 C-907.731875 795.41734375 -907.46375 794.8346875 -907.1875 794.234375 C-905.98519009 791.97213399 -904.66174087 790.19423682 -903 788.25 C-902.484375 787.63640625 -901.96875 787.0228125 -901.4375 786.390625 C-900 785 -900 785 -898 785 C-897.938125 784.443125 -897.87625 783.88625 -897.8125 783.3125 C-896.65202666 780.00961433 -894.52873996 778.41879475 -892 776 C-890.16094351 773.87618638 -888.34969224 771.73211419 -886.55078125 769.57421875 C-886.03902344 769.05472656 -885.52726563 768.53523438 -885 768 C-884.34 768 -883.68 768 -883 768 C-882.67 767.01 -882.34 766.02 -882 765 C-881.34 765 -880.68 765 -880 765 C-879.77441406 764.45601562 -879.54882812 763.91203125 -879.31640625 763.3515625 C-877.58776213 760.26359881 -875.35449856 757.95545026 -872.9375 755.375 C-869.58466353 751.95790247 -869.58466353 751.95790247 -867 748 C-866.34 748 -865.68 748 -865 748 C-865 747.34 -865 746.68 -865 746 C-864.34 746 -863.68 746 -863 746 C-862.731875 745.41734375 -862.46375 744.8346875 -862.1875 744.234375 C-860.98519009 741.97213399 -859.66174087 740.19423682 -858 738.25 C-857.484375 737.63640625 -856.96875 737.0228125 -856.4375 736.390625 C-855 735 -855 735 -853 735 C-852.77441406 734.45601562 -852.54882812 733.91203125 -852.31640625 733.3515625 C-850.58776213 730.26359881 -848.35449856 727.95545026 -845.9375 725.375 C-842.58466353 721.95790247 -842.58466353 721.95790247 -840 718 C-839.34 718 -838.68 718 -838 718 C-837.77054688 717.45214844 -837.54109375 716.90429688 -837.3046875 716.33984375 C-835.62395795 713.32560122 -833.48046682 711.08222044 -831.125 708.5625 C-828.658454 705.91556481 -826.23877091 703.30148311 -823.9921875 700.46484375 C-821.82139717 697.77902277 -819.45983272 695.42256253 -817 693 C-810.59419789 686.22537898 -804.51724874 679.33311411 -798.77734375 671.984375 C-798.19082031 671.32953125 -797.60429688 670.6746875 -797 670 C-796.34 670 -795.68 670 -795 670 C-794.67 669.01 -794.34 668.02 -794 667 C-793.34 667 -792.68 667 -792 667 C-791.77441406 666.45601562 -791.54882812 665.91203125 -791.31640625 665.3515625 C-789.58776213 662.26359881 -787.35449856 659.95545026 -784.9375 657.375 C-781.58466353 653.95790247 -781.58466353 653.95790247 -779 650 C-778.34 650 -777.68 650 -777 650 C-777 649.34 -777 648.68 -777 648 C-776.34 648 -775.68 648 -775 648 C-774.731875 647.41734375 -774.46375 646.8346875 -774.1875 646.234375 C-772.98519009 643.97213399 -771.66174087 642.19423682 -770 640.25 C-769.484375 639.63640625 -768.96875 639.0228125 -768.4375 638.390625 C-767 637 -767 637 -765 637 C-764.938125 636.443125 -764.87625 635.88625 -764.8125 635.3125 C-763.65202666 632.00961433 -761.52873996 630.41879475 -759 628 C-757.16094351 625.87618638 -755.34969224 623.73211419 -753.55078125 621.57421875 C-753.03902344 621.05472656 -752.52726562 620.53523438 -752 620 C-751.34 620 -750.68 620 -750 620 C-749.67 619.01 -749.34 618.02 -749 617 C-748.34 617 -747.68 617 -747 617 C-746.77441406 616.45601562 -746.54882812 615.91203125 -746.31640625 615.3515625 C-744.58776213 612.26359881 -742.35449856 609.95545026 -739.9375 607.375 C-736.58466353 603.95790247 -736.58466353 603.95790247 -734 600 C-733.34 600 -732.68 600 -732 600 C-732 599.34 -732 598.68 -732 598 C-731.34 598 -730.68 598 -730 598 C-729.731875 597.41734375 -729.46375 596.8346875 -729.1875 596.234375 C-727.98519009 593.97213399 -726.66174087 592.19423682 -725 590.25 C-724.484375 589.63640625 -723.96875 589.0228125 -723.4375 588.390625 C-722 587 -722 587 -720 587 C-719.938125 586.443125 -719.87625 585.88625 -719.8125 585.3125 C-718.65202666 582.00961433 -716.52873996 580.41879475 -714 578 C-712.16094351 575.87618638 -710.34969224 573.73211419 -708.55078125 571.57421875 C-708.03902344 571.05472656 -707.52726562 570.53523438 -707 570 C-706.34 570 -705.68 570 -705 570 C-704.67 569.01 -704.34 568.02 -704 567 C-703.34 567 -702.68 567 -702 567 C-701.77441406 566.45601562 -701.54882812 565.91203125 -701.31640625 565.3515625 C-699.58776213 562.26359881 -697.35449856 559.95545026 -694.9375 557.375 C-691.58466353 553.95790247 -691.58466353 553.95790247 -689 550 C-688.34 550 -687.68 550 -687 550 C-687 549.34 -687 548.68 -687 548 C-686.34 548 -685.68 548 -685 548 C-684.731875 547.41734375 -684.46375 546.8346875 -684.1875 546.234375 C-682.98519009 543.97213399 -681.66174087 542.19423682 -680 540.25 C-679.484375 539.63640625 -678.96875 539.0228125 -678.4375 538.390625 C-677 537 -677 537 -675 537 C-674.938125 536.443125 -674.87625 535.88625 -674.8125 535.3125 C-673.65202666 532.00961433 -671.52873996 530.41879475 -669 528 C-667.16094351 525.87618638 -665.34969224 523.73211419 -663.55078125 521.57421875 C-663.03902344 521.05472656 -662.52726562 520.53523438 -662 520 C-661.34 520 -660.68 520 -660 520 C-659.67 519.01 -659.34 518.02 -659 517 C-658.34 517 -657.68 517 -657 517 C-656.75121094 516.44441406 -656.50242187 515.88882813 -656.24609375 515.31640625 C-654.77904015 512.58925018 -653.01113998 510.34336277 -651.0625 507.9375 C-650.02802734 506.65166016 -650.02802734 506.65166016 -648.97265625 505.33984375 C-645.76049374 501.52977376 -645.76049374 501.52977376 -644 500 C-643.34 500 -642.68 500 -642 500 C-641.7525 499.43796875 -641.505 498.8759375 -641.25 498.296875 C-639.78725133 495.60907431 -638.03195127 493.53594518 -636 491.25 C-634.948125 490.05117187 -634.948125 490.05117187 -633.875 488.828125 C-632 487 -632 487 -630 487 C-629.7628125 486.45859375 -629.525625 485.9171875 -629.28125 485.359375 C-627.65652243 482.36749863 -625.6498123 479.88840601 -623.5 477.25 C-622.7059375 476.26515625 -621.911875 475.2803125 -621.09375 474.265625 C-620.4028125 473.51796875 -619.711875 472.7703125 -619 472 C-618.34 472 -617.68 472 -617 472 C-617 471.34 -617 470.68 -617 470 C-616.34 470 -615.68 470 -615 470 C-614.77054688 469.45214844 -614.54109375 468.90429688 -614.3046875 468.33984375 C-612.62395795 465.32560122 -610.48046682 463.08222044 -608.125 460.5625 C-605.56758185 457.81804679 -603.0957168 455.12415933 -600.8046875 452.15234375 C-600.20914062 451.44207031 -599.61359375 450.73179687 -599 450 C-598.34 450 -597.68 450 -597 450 C-596.7525 449.43796875 -596.505 448.8759375 -596.25 448.296875 C-594.78725133 445.60907431 -593.03195127 443.53594518 -591 441.25 C-589.948125 440.05117187 -589.948125 440.05117187 -588.875 438.828125 C-587 437 -587 437 -585 437 C-584.7628125 436.45859375 -584.525625 435.9171875 -584.28125 435.359375 C-582.65652243 432.36749863 -580.6498123 429.88840601 -578.5 427.25 C-577.7059375 426.26515625 -576.911875 425.2803125 -576.09375 424.265625 C-575.4028125 423.51796875 -574.711875 422.7703125 -574 422 C-573.34 422 -572.68 422 -572 422 C-572 421.34 -572 420.68 -572 420 C-570.85482964 418.8018125 -569.70099329 417.61075915 -568.50585938 416.46240234 C-565.81369797 413.84793302 -563.29634112 411.0679157 -560.75 408.3125 C-560.20859375 407.73177734 -559.6671875 407.15105469 -559.109375 406.55273438 C-556.22715755 403.51421828 -556.22715755 403.51421828 -554 400 C-553.34 400 -552.68 400 -552 400 C-551.731875 399.41734375 -551.46375 398.8346875 -551.1875 398.234375 C-549.98519009 395.97213399 -548.66174087 394.19423682 -547 392.25 C-546.484375 391.63640625 -545.96875 391.0228125 -545.4375 390.390625 C-544 389 -544 389 -542 389 C-541.77441406 388.45601562 -541.54882812 387.91203125 -541.31640625 387.3515625 C-539.58776213 384.26359881 -537.35449856 381.95545026 -534.9375 379.375 C-531.58466353 375.95790247 -531.58466353 375.95790247 -529 372 C-528.34 372 -527.68 372 -527 372 C-526.67 371.01 -526.34 370.02 -526 369 C-525.34 369 -524.68 369 -524 369 C-523.77441406 368.45601562 -523.54882812 367.91203125 -523.31640625 367.3515625 C-521.58776213 364.26359881 -519.35449856 361.95545026 -516.9375 359.375 C-513.58466353 355.95790247 -513.58466353 355.95790247 -511 352 C-510.34 352 -509.68 352 -509 352 C-509 351.34 -509 350.68 -509 350 C-508.34 350 -507.68 350 -507 350 C-506.731875 349.41734375 -506.46375 348.8346875 -506.1875 348.234375 C-504.98519009 345.97213399 -503.66174087 344.19423682 -502 342.25 C-501.484375 341.63640625 -500.96875 341.0228125 -500.4375 340.390625 C-499 339 -499 339 -497 339 C-496.938125 338.443125 -496.87625 337.88625 -496.8125 337.3125 C-495.65202666 334.00961433 -493.52873996 332.41879475 -491 330 C-489.16094351 327.87618638 -487.34969224 325.73211419 -485.55078125 323.57421875 C-485.03902344 323.05472656 -484.52726563 322.53523438 -484 322 C-483.34 322 -482.68 322 -482 322 C-481.67 321.01 -481.34 320.02 -481 319 C-480.34 319 -479.68 319 -479 319 C-478.77441406 318.45601562 -478.54882812 317.91203125 -478.31640625 317.3515625 C-476.58776213 314.26359881 -474.35449856 311.95545026 -471.9375 309.375 C-468.58466353 305.95790247 -468.58466353 305.95790247 -466 302 C-465.34 302 -464.68 302 -464 302 C-464 301.34 -464 300.68 -464 300 C-463.34 300 -462.68 300 -462 300 C-461.731875 299.41734375 -461.46375 298.8346875 -461.1875 298.234375 C-459.98519009 295.97213399 -458.66174087 294.19423682 -457 292.25 C-456.484375 291.63640625 -455.96875 291.0228125 -455.4375 290.390625 C-454 289 -454 289 -452 289 C-451.938125 288.443125 -451.87625 287.88625 -451.8125 287.3125 C-450.65823021 284.02727058 -448.50611114 282.392197 -446 280 C-445.09203586 278.90578681 -444.19592869 277.8016163 -443.3125 276.6875 C-442.549375 275.800625 -441.78625 274.91375 -441 274 C-440.34 274 -439.68 274 -439 274 C-439 273.34 -439 272.68 -439 272 C-438.34 272 -437.68 272 -437 272 C-436.77054688 271.45214844 -436.54109375 270.90429688 -436.3046875 270.33984375 C-434.62395795 267.32560122 -432.48046682 265.08222044 -430.125 262.5625 C-427.56758185 259.81804679 -425.0957168 257.12415933 -422.8046875 254.15234375 C-422.20914063 253.44207031 -421.61359375 252.73179687 -421 252 C-420.34 252 -419.68 252 -419 252 C-418.7525 251.43796875 -418.505 250.8759375 -418.25 250.296875 C-416.78725133 247.60907431 -415.03195127 245.53594518 -413 243.25 C-412.29875 242.45078125 -411.5975 241.6515625 -410.875 240.828125 C-409 239 -409 239 -407 239 C-406.64421875 238.18789063 -406.64421875 238.18789063 -406.28125 237.359375 C-404.65652243 234.36749863 -402.6498123 231.88840601 -400.5 229.25 C-399.7059375 228.26515625 -398.911875 227.2803125 -398.09375 226.265625 C-397.05734375 225.14414062 -397.05734375 225.14414062 -396 224 C-395.34 224 -394.68 224 -394 224 C-394 223.34 -394 222.68 -394 222 C-393.34 222 -392.68 222 -392 222 C-391.77054688 221.45214844 -391.54109375 220.90429688 -391.3046875 220.33984375 C-389.62395795 217.32560122 -387.48046682 215.08222044 -385.125 212.5625 C-382.56758185 209.81804679 -380.0957168 207.12415933 -377.8046875 204.15234375 C-377.20914063 203.44207031 -376.61359375 202.73179687 -376 202 C-375.34 202 -374.68 202 -374 202 C-373.7525 201.43796875 -373.505 200.8759375 -373.25 200.296875 C-371.78725133 197.60907431 -370.03195127 195.53594518 -368 193.25 C-367.29875 192.45078125 -366.5975 191.6515625 -365.875 190.828125 C-364 189 -364 189 -362 189 C-361.64421875 188.18789063 -361.64421875 188.18789063 -361.28125 187.359375 C-359.65652243 184.36749863 -357.6498123 181.88840601 -355.5 179.25 C-354.7059375 178.26515625 -353.911875 177.2803125 -353.09375 176.265625 C-352.05734375 175.14414062 -352.05734375 175.14414062 -351 174 C-350.34 174 -349.68 174 -349 174 C-349 173.34 -349 172.68 -349 172 C-348.34 172 -347.68 172 -347 172 C-346.73195557 171.40977051 -346.46391113 170.81954102 -346.18774414 170.21142578 C-344.99051006 167.98233096 -343.73748805 166.44125218 -341.99609375 164.6171875 C-341.42052734 164.00746094 -340.84496094 163.39773438 -340.25195312 162.76953125 C-339.35379883 161.83173828 -339.35379883 161.83173828 -338.4375 160.875 C-337.24667673 159.62431717 -336.05777889 158.37179738 -334.87109375 157.1171875 C-334.34443115 156.56659668 -333.81776855 156.01600586 -333.27514648 155.44873047 C-331.89762196 154.00795511 -331.89762196 154.00795511 -331 152 C-330.34 152 -329.68 152 -329 152 C-328.731875 151.4225 -328.46375 150.845 -328.1875 150.25 C-326.97070811 147.94449957 -325.69666121 145.97943808 -324 144 C-323.34 144 -322.68 144 -322 144 C-321.67 143.01 -321.34 142.02 -321 141 C-320.34 141 -319.68 141 -319 141 C-318.77441406 140.45601562 -318.54882812 139.91203125 -318.31640625 139.3515625 C-316.58776213 136.26359881 -314.35449856 133.95545026 -311.9375 131.375 C-308.58466353 127.95790247 -308.58466353 127.95790247 -306 124 C-305.34 124 -304.68 124 -304 124 C-303.67 123.01 -303.34 122.02 -303 121 C-302.34 121 -301.68 121 -301 121 C-300.77441406 120.45601562 -300.54882812 119.91203125 -300.31640625 119.3515625 C-298.58776213 116.26359881 -296.35449856 113.95545026 -293.9375 111.375 C-290.58466353 107.95790247 -290.58466353 107.95790247 -288 104 C-287.34 104 -286.68 104 -286 104 C-286 103.34 -286 102.68 -286 102 C-285.34 102 -284.68 102 -284 102 C-283.773125 101.46375 -283.54625 100.9275 -283.3125 100.375 C-279.65069319 93.74887339 -276.19607345 91.09120374 -269.125 88.9375 C-268.37686035 88.69201416 -267.6287207 88.44652832 -266.85791016 88.19360352 C-265.31869515 87.69001711 -263.77682832 87.19446417 -262.23242188 86.70703125 C-260.17319535 86.05485277 -258.12452623 85.37871024 -256.078125 84.6875 C-252.39043355 83.44270964 -248.69589293 82.22019395 -245 81 C-242.49973914 80.16744967 -239.99974003 79.33411284 -237.5 78.5 C-162.5 53.5 -162.5 53.5 -158.95556641 52.31860352 C-156.47338465 51.49122234 -153.99129906 50.66355471 -151.50927734 49.83569336 C-145.26031821 47.75170375 -139.01037417 45.67082051 -132.7578125 43.59765625 C-118.31864455 38.80448501 -103.90302371 33.94988855 -89.51358032 29.00930786 C-72.2152133 23.07118481 -54.86204773 17.32738983 -37.45695496 11.71022034 C-36.26589897 11.32579018 -36.26589897 11.32579018 -35.05078125 10.93359375 C-34.27265579 10.68250351 -33.49453033 10.43141327 -32.69282532 10.17271423 C-24.6631507 7.5767101 -16.66036032 4.90161208 -8.67163086 2.18212891 C-7.8028833 1.88870605 -6.93413574 1.5952832 -6.0390625 1.29296875 C-4.92845459 0.91434692 -4.92845459 0.91434692 -3.79541016 0.52807617 C-2 0 -2 0 0 0 Z " fill="#EE3135" transform="translate(1096,638)"/>
</svg>
